<?xml version="1.0" encoding="UTF-8"?>
<!DOCTYPE svg PUBLIC "-//W3C//DTD SVG 1.1//EN" "http://www.w3.org/Graphics/SVG/1.1/DTD/svg11.dtd">
<svg xmlns="http://www.w3.org/2000/svg" version="1.1" width="93px" height="91px" style="shape-rendering:geometricPrecision; text-rendering:geometricPrecision; image-rendering:optimizeQuality; fill-rule:evenodd; clip-rule:evenodd" xmlns:xlink="http://www.w3.org/1999/xlink">
<g><path style="opacity:1" fill="#2589c8" d="M 1.5,-0.5 C 9.16667,-0.5 16.8333,-0.5 24.5,-0.5C 16.7853,7.54872 8.45201,14.8821 -0.5,21.5C -0.5,14.8333 -0.5,8.16667 -0.5,1.5C 0.5,1.16667 1.16667,0.5 1.5,-0.5 Z"/></g>
<g><path style="opacity:0.874" fill="#3e92c9" d="M 24.5,-0.5 C 31.1667,-0.5 37.8333,-0.5 44.5,-0.5C 43.8333,0.833333 42.8333,1.83333 41.5,2.5C 40.2618,1.58761 38.9285,1.42094 37.5,2C 37.9574,2.41395 38.2907,2.91395 38.5,3.5C 35.2146,4.96349 32.2146,6.79682 29.5,9C 30.5,9.33333 31.5,9.66667 32.5,10C 28.9669,11.3668 26.6336,13.8668 25.5,17.5C 22.8666,18.3006 21.0333,19.9673 20,22.5C 19.6667,22.1667 19.3333,21.8333 19,21.5C 18.8333,24.3333 17.3333,25.8333 14.5,26C 13.7894,27.2547 12.956,28.4214 12,29.5C 11.0862,28.3463 10.2529,28.513 9.5,30C 9.83333,30.3333 10.1667,30.6667 10.5,31C 8.97506,32.0086 7.30839,32.5086 5.5,32.5C 5.64945,33.552 5.48278,34.552 5,35.5C 3.7188,35.3808 2.55214,35.8808 1.5,37C 1.16539,38.164 1.16539,39.4974 1.5,41C 0.955796,41.7172 0.28913,42.2172 -0.5,42.5C -0.5,35.5 -0.5,28.5 -0.5,21.5C 8.45201,14.8821 16.7853,7.54872 24.5,-0.5 Z"/></g>
<g><path style="opacity:0.866" fill="#4182b8" d="M 91.5,1.5 C 91.8333,1.5 92.1667,1.5 92.5,1.5C 92.5,10.1667 92.5,18.8333 92.5,27.5C 85.6401,24.436 78.6401,21.7694 71.5,19.5C 71.1961,18.8501 70.8627,18.1835 70.5,17.5C 71.9814,16.5197 73.3147,15.353 74.5,14C 73.9747,13.3076 73.3081,12.8076 72.5,12.5C 70.0223,15.9989 66.6889,17.6656 62.5,17.5C 62.3505,16.448 62.5172,15.448 63,14.5C 64.5565,15.2052 65.7232,14.5385 66.5,12.5C 72.5246,9.64407 77.858,5.81073 82.5,1C 85.4752,0.956462 88.4752,1.12313 91.5,1.5 Z"/></g>
<g><path style="opacity:0.868" fill="#4e8ec1" d="M 71.5,-0.5 C 76.8333,-0.5 82.1667,-0.5 87.5,-0.5C 88.8333,0.166667 90.1667,0.833333 91.5,1.5C 88.4752,1.12313 85.4752,0.956462 82.5,1C 77.858,5.81073 72.5246,9.64407 66.5,12.5C 65.7232,14.5385 64.5565,15.2052 63,14.5C 62.5172,15.448 62.3505,16.448 62.5,17.5C 66.6889,17.6656 70.0223,15.9989 72.5,12.5C 73.3081,12.8076 73.9747,13.3076 74.5,14C 73.3147,15.353 71.9814,16.5197 70.5,17.5C 70.8627,18.1835 71.1961,18.8501 71.5,19.5C 62.1994,18.6126 52.8661,18.2792 43.5,18.5C 42.209,18.7373 41.209,18.404 40.5,17.5C 48.5344,7.64601 58.8677,1.64601 71.5,-0.5 Z"/></g>
<g><path style="opacity:0.874" fill="#599acb" d="M 41.5,2.5 C 35.6908,8.31876 31.0241,14.9854 27.5,22.5C 20.2463,26.2036 14.0796,31.2036 9,37.5C 7.95713,40.7568 7.45713,44.0901 7.5,47.5C 7.30739,40.5473 5.64072,40.0473 2.5,46C 1.42317,46.4696 0.423175,46.3029 -0.5,45.5C -0.5,44.5 -0.5,43.5 -0.5,42.5C 0.28913,42.2172 0.955796,41.7172 1.5,41C 1.16539,39.4974 1.16539,38.164 1.5,37C 2.55214,35.8808 3.7188,35.3808 5,35.5C 5.48278,34.552 5.64945,33.552 5.5,32.5C 7.30839,32.5086 8.97506,32.0086 10.5,31C 10.1667,30.6667 9.83333,30.3333 9.5,30C 10.2529,28.513 11.0862,28.3463 12,29.5C 12.956,28.4214 13.7894,27.2547 14.5,26C 17.3333,25.8333 18.8333,24.3333 19,21.5C 19.3333,21.8333 19.6667,22.1667 20,22.5C 21.0333,19.9673 22.8666,18.3006 25.5,17.5C 26.6336,13.8668 28.9669,11.3668 32.5,10C 31.5,9.66667 30.5,9.33333 29.5,9C 32.2146,6.79682 35.2146,4.96349 38.5,3.5C 38.2907,2.91395 37.9574,2.41395 37.5,2C 38.9285,1.42094 40.2618,1.58761 41.5,2.5 Z"/></g>
<g><path style="opacity:0.004" fill="#e0ebf4" d="M 40.5,17.5 C 41.209,18.404 42.209,18.7373 43.5,18.5C 42.2918,19.782 40.9584,19.782 39.5,18.5C 39.6236,17.8933 39.9569,17.56 40.5,17.5 Z"/></g>
<g><path style="opacity:0.844" fill="#5293c5" d="M 68.5,25.5 C 62.0699,24.2675 55.0699,24.2675 47.5,25.5C 47.6168,27.4835 46.9501,29.1502 45.5,30.5C 43.405,29.7706 41.5716,30.4372 40,32.5C 37.8421,38.3909 35.3421,43.5576 32.5,48C 32.5451,50.6365 32.7118,53.4698 33,56.5C 33.6667,53.8333 34.3333,53.8333 35,56.5C 37.7641,52.4629 40.2641,48.1296 42.5,43.5C 43.3081,43.8076 43.9747,44.3076 44.5,45C 43.0404,48.0887 41.207,50.9221 39,53.5C 38.3486,55.235 38.5153,56.9017 39.5,58.5C 38.9682,60.7411 37.6349,62.2411 35.5,63C 36.7375,63.2321 37.7375,63.7321 38.5,64.5C 37.0222,64.762 35.6888,64.4287 34.5,63.5C 29.2029,50.8595 29.2029,38.1928 34.5,25.5C 39.6953,23.9524 45.0286,22.9524 50.5,22.5C 56.7091,22.9924 62.7091,23.9924 68.5,25.5 Z"/></g>
<g><path style="opacity:0.063" fill="#eef5f9" d="M 23.5,28.5 C 24.3023,27.1153 24.9689,27.282 25.5,29C 25.4301,29.7648 25.0967,30.2648 24.5,30.5C 24.6716,29.5084 24.3382,28.8417 23.5,28.5 Z"/></g>
<g><path style="opacity:0.843" fill="#4786ba" d="M 68.5,25.5 C 71.1522,25.4095 73.4855,26.0762 75.5,27.5C 72.3979,27.154 69.5645,27.8207 67,29.5C 61.2116,40.2467 55.0449,50.7467 48.5,61C 51.7793,64.1015 55.7793,65.2682 60.5,64.5C 53.2653,65.811 45.932,65.811 38.5,64.5C 37.7375,63.7321 36.7375,63.2321 35.5,63C 37.6349,62.2411 38.9682,60.7411 39.5,58.5C 38.5153,56.9017 38.3486,55.235 39,53.5C 41.207,50.9221 43.0404,48.0887 44.5,45C 43.9747,44.3076 43.3081,43.8076 42.5,43.5C 40.2641,48.1296 37.7641,52.4629 35,56.5C 34.3333,53.8333 33.6667,53.8333 33,56.5C 32.7118,53.4698 32.5451,50.6365 32.5,48C 35.3421,43.5576 37.8421,38.3909 40,32.5C 41.5716,30.4372 43.405,29.7706 45.5,30.5C 46.9501,29.1502 47.6168,27.4835 47.5,25.5C 55.0699,24.2675 62.0699,24.2675 68.5,25.5 Z"/></g>
<g><path style="opacity:0.841" fill="#497caf" d="M 75.5,27.5 C 83.6524,29.3329 89.3191,33.9996 92.5,41.5C 92.5,43.5 92.5,45.5 92.5,47.5C 88.2247,56.0071 81.2247,61.1738 71.5,63C 67.9137,64.1076 64.247,64.6076 60.5,64.5C 55.7793,65.2682 51.7793,64.1015 48.5,61C 55.0449,50.7467 61.2116,40.2467 67,29.5C 69.5645,27.8207 72.3979,27.154 75.5,27.5 Z"/></g>
<g><path style="opacity:0.898" fill="#8dbce0" d="M 18.5,31.5 C 17.4154,33.5869 15.7488,34.9202 13.5,35.5C 14.5846,33.4131 16.2512,32.0798 18.5,31.5 Z"/></g>
<g><path style="opacity:0.843" fill="#579cce" d="M 23.5,28.5 C 24.3382,28.8417 24.6716,29.5084 24.5,30.5C 22.5064,39.8025 22.5064,48.9691 24.5,58C 24.1667,58.8333 23.8333,59.6667 23.5,60.5C 15.5821,57.921 10.9154,52.5876 9.5,44.5C 9.59916,42.2014 10.2658,40.2014 11.5,38.5C 12.9063,38.0269 13.573,37.0269 13.5,35.5C 15.7488,34.9202 17.4154,33.5869 18.5,31.5C 19.9649,30.2632 21.6316,29.2632 23.5,28.5 Z"/></g>
<g><path style="opacity:0.353" fill="#bbd9ed" d="M 13.5,35.5 C 13.573,37.0269 12.9063,38.0269 11.5,38.5C 11.427,36.9731 12.0937,35.9731 13.5,35.5 Z"/></g>
<g><path style="opacity:0.878" fill="#4485ba" d="M 7.5,47.5 C 11.4552,56.2868 17.9552,62.6202 27,66.5C 28.4538,69.0711 29.6205,71.7378 30.5,74.5C 29.8826,74.3893 29.3826,74.056 29,73.5C 27.292,75.5435 25.292,77.2101 23,78.5C 22.3333,77.1667 22.3333,75.8333 23,74.5C 24.8333,73.3333 26.3333,71.8333 27.5,70C 26.3333,69.5 25.5,68.6667 25,67.5C 23.8333,69.1667 22.6667,70.8333 21.5,72.5C 20.2322,71.5721 18.8989,71.4054 17.5,72C 13.0951,76.2829 8.59507,80.4496 4,84.5C 3.50454,86.4727 3.33788,88.4727 3.5,90.5C 2.83333,90.5 2.16667,90.5 1.5,90.5C 1.16667,89.5 0.5,88.8333 -0.5,88.5C -0.5,74.1667 -0.5,59.8333 -0.5,45.5C 0.423175,46.3029 1.42317,46.4696 2.5,46C 5.64072,40.0473 7.30739,40.5473 7.5,47.5 Z"/></g>
<g><path style="opacity:1" fill="#2f5f9c" d="M 92.5,68.5 C 92.5,75.1667 92.5,81.8333 92.5,88.5C 91.2905,88.9321 90.2905,89.5987 89.5,90.5C 83.1667,90.5 76.8333,90.5 70.5,90.5C 70.5,90.1667 70.5,89.8333 70.5,89.5C 71.8823,86.6057 73.8823,84.1057 76.5,82C 81.7061,77.2892 87.0395,72.7892 92.5,68.5 Z"/></g>
<g><path style="opacity:0.875" fill="#86a7cb" d="M 53.5,71.5 C 50.1667,71.5 46.8333,71.5 43.5,71.5C 43.4003,74.1085 44.0669,76.4418 45.5,78.5C 42.4731,76.471 40.1398,73.8044 38.5,70.5C 39.1667,70.1667 39.8333,69.8333 40.5,69.5C 44.9922,70.0512 49.3255,70.7179 53.5,71.5 Z"/></g>
<g><path style="opacity:0.874" fill="#4476ab" d="M 92.5,60.5 C 92.5,63.1667 92.5,65.8333 92.5,68.5C 87.0395,72.7892 81.7061,77.2892 76.5,82C 73.8823,84.1057 71.8823,86.6057 70.5,89.5C 63.4129,88.9187 57.0795,86.5854 51.5,82.5C 51.0269,81.0937 50.0269,80.427 48.5,80.5C 47.5,79.8333 46.5,79.1667 45.5,78.5C 44.0669,76.4418 43.4003,74.1085 43.5,71.5C 46.8333,71.5 50.1667,71.5 53.5,71.5C 67.5324,71.2323 80.5324,67.5656 92.5,60.5 Z"/></g>
<g><path style="opacity:0.875" fill="#437db3" d="M 30.5,74.5 C 34.823,80.1549 39.4897,85.4882 44.5,90.5C 30.8333,90.5 17.1667,90.5 3.5,90.5C 3.33788,88.4727 3.50454,86.4727 4,84.5C 8.59507,80.4496 13.0951,76.2829 17.5,72C 18.8989,71.4054 20.2322,71.5721 21.5,72.5C 22.6667,70.8333 23.8333,69.1667 25,67.5C 25.5,68.6667 26.3333,69.5 27.5,70C 26.3333,71.8333 24.8333,73.3333 23,74.5C 22.3333,75.8333 22.3333,77.1667 23,78.5C 25.292,77.2101 27.292,75.5435 29,73.5C 29.3826,74.056 29.8826,74.3893 30.5,74.5 Z"/></g>
<g><path style="opacity:0.4" fill="#b2c6dd" d="M 48.5,80.5 C 50.0269,80.427 51.0269,81.0937 51.5,82.5C 49.9731,82.573 48.9731,81.9063 48.5,80.5 Z"/></g>
</svg>
